# Blender v3.2.2 OBJ File: ''
# www.blender.org
mtllib dispobj.mtl
o Cone
v 2.035355 0.081308 -16.385574
v 2.035355 1.942372 -16.070730
v 2.035355 3.731917 -15.138296
v 2.035355 5.381171 -13.624106
v 2.035355 6.826754 -11.586350
v 2.035355 8.013113 -9.103337
v 2.035355 8.894657 -6.270488
v 2.035355 9.437510 -3.196667
v 2.035355 9.620810 0.000001
v 2.035355 9.437510 3.196667
v 2.035355 8.894657 6.270487
v 2.035355 8.013113 9.103336
v 2.035355 6.826754 11.586350
v 2.035355 5.381170 13.624108
v 2.035355 3.731917 15.138296
v 2.035355 1.942372 16.070730
v 2.035355 0.081307 16.385574
v 2.035355 -1.779756 16.070730
v 2.035355 -3.569301 15.138296
v 2.035355 -5.218556 13.624105
v 2.035355 -6.664137 11.586351
v 2.035355 -7.850496 9.103340
v 2.035355 -8.732042 6.270490
v 2.035355 -9.274895 3.196668
v 2.035355 -9.458193 -0.000000
v 2.035355 -9.274895 -3.196668
v 2.035355 -8.732040 -6.270491
v 2.035355 -7.850499 -9.103334
v 2.035355 -6.664139 -11.586349
v 2.035355 -5.218556 -13.624106
v 2.035355 -3.569301 -15.138297
v 2.035355 -1.779756 -16.070730
v -83.879570 0.081304 0.000000
vt 0.250000 0.490000
vt 0.250000 0.250000
vt 0.296822 0.485388
vt 0.341844 0.471731
vt 0.383337 0.449553
vt 0.419706 0.419706
vt 0.449553 0.383337
vt 0.471731 0.341844
vt 0.485388 0.296822
vt 0.490000 0.250000
vt 0.485388 0.203178
vt 0.471731 0.158156
vt 0.449553 0.116663
vt 0.419706 0.080294
vt 0.383337 0.050447
vt 0.341844 0.028269
vt 0.296822 0.014612
vt 0.250000 0.010000
vt 0.203178 0.014612
vt 0.158156 0.028269
vt 0.116663 0.050447
vt 0.080294 0.080294
vt 0.050447 0.116663
vt 0.028269 0.158156
vt 0.014612 0.203178
vt 0.010000 0.250000
vt 0.014612 0.296822
vt 0.028269 0.341844
vt 0.050447 0.383337
vt 0.080294 0.419706
vt 0.116663 0.449553
vt 0.158156 0.471731
vt 0.203178 0.485388
vn -0.1848 0.1639 -0.9690
vn -0.1732 0.4551 -0.8734
vn -0.1566 0.6680 -0.7275
vn -0.1407 0.8075 -0.5728
vn -0.1279 0.8949 -0.4276
vn -0.1188 0.9481 -0.2950
vn -0.1130 0.9785 -0.1728
vn -0.1102 0.9923 -0.0569
vn -0.1102 0.9923 0.0569
vn -0.1130 0.9785 0.1728
vn -0.1188 0.9481 0.2950
vn -0.1279 0.8949 0.4276
vn -0.1407 0.8075 0.5728
vn -0.1566 0.6680 0.7275
vn -0.1732 0.4551 0.8734
vn -0.1848 0.1639 0.9690
vn -0.1848 -0.1639 0.9690
vn -0.1732 -0.4551 0.8734
vn -0.1566 -0.6680 0.7275
vn -0.1407 -0.8075 0.5728
vn -0.1279 -0.8949 0.4276
vn -0.1188 -0.9481 0.2950
vn -0.1130 -0.9785 0.1728
vn -0.1102 -0.9923 0.0569
vn -0.1102 -0.9923 -0.0569
vn -0.1130 -0.9785 -0.1728
vn -0.1188 -0.9481 -0.2950
vn -0.1279 -0.8949 -0.4276
vn -0.1407 -0.8075 -0.5728
vn -0.1566 -0.6680 -0.7275
vn -0.1732 -0.4551 -0.8734
vn -0.1848 -0.1639 -0.9690
usemtl None
s off
f 1/1/1 33/2/1 2/3/1
f 2/3/2 33/2/2 3/4/2
f 3/4/3 33/2/3 4/5/3
f 4/5/4 33/2/4 5/6/4
f 5/6/5 33/2/5 6/7/5
f 6/7/6 33/2/6 7/8/6
f 7/8/7 33/2/7 8/9/7
f 8/9/8 33/2/8 9/10/8
f 9/10/9 33/2/9 10/11/9
f 10/11/10 33/2/10 11/12/10
f 11/12/11 33/2/11 12/13/11
f 12/13/12 33/2/12 13/14/12
f 13/14/13 33/2/13 14/15/13
f 14/15/14 33/2/14 15/16/14
f 15/16/15 33/2/15 16/17/15
f 16/17/16 33/2/16 17/18/16
f 17/18/17 33/2/17 18/19/17
f 18/19/18 33/2/18 19/20/18
f 19/20/19 33/2/19 20/21/19
f 20/21/20 33/2/20 21/22/20
f 21/22/21 33/2/21 22/23/21
f 22/23/22 33/2/22 23/24/22
f 23/24/23 33/2/23 24/25/23
f 24/25/24 33/2/24 25/26/24
f 25/26/25 33/2/25 26/27/25
f 26/27/26 33/2/26 27/28/26
f 27/28/27 33/2/27 28/29/27
f 28/29/28 33/2/28 29/30/28
f 29/30/29 33/2/29 30/31/29
f 30/31/30 33/2/30 31/32/30
f 31/32/31 33/2/31 32/33/31
f 32/33/32 33/2/32 1/1/32
