# Blender v3.2.2 OBJ File: ''
# www.blender.org
mtllib glider.mtl
o Cube_Cube.002
v 0.486034 0.312909 4.341325
v 0.486034 -0.009793 4.341325
v 0.486034 0.312909 0.145469
v 0.486034 -0.009793 0.145469
v -0.571056 0.312909 4.341325
v -0.571056 -0.009793 4.341325
v -0.571056 0.312909 0.145469
v -0.571056 -0.009793 0.145469
v 3.563053 0.312909 6.391078
v 3.563053 -0.009793 6.391078
v 2.807145 0.312909 6.775808
v 2.807145 -0.009793 6.775808
v 0.515665 0.313892 -3.972610
v 0.515665 -0.008810 -3.972610
v 0.515665 0.313892 0.223247
v 0.515665 -0.008810 0.223247
v -0.541426 0.313892 -3.972610
v -0.541426 -0.008810 -3.972610
v -0.541426 0.313892 0.223247
v -0.541426 -0.008810 0.223247
v 3.592683 0.313892 -6.022362
v 3.592683 -0.008810 -6.022362
v 2.836776 0.313892 -6.407094
v 2.836776 -0.008810 -6.407094
vt 0.375000 0.000000
vt 0.625000 0.000000
vt 0.625000 0.250000
vt 0.375000 0.250000
vt 0.625000 0.500000
vt 0.375000 0.500000
vt 0.625000 0.750000
vt 0.375000 0.750000
vt 0.375000 0.000000
vt 0.625000 0.000000
vt 0.125000 0.500000
vt 0.125000 0.750000
vt 0.875000 0.500000
vt 0.875000 0.750000
vt 0.375000 0.750000
vt 0.625000 0.750000
vt 0.625000 1.000000
vt 0.375000 1.000000
vt 0.125000 0.750000
vt 0.875000 0.750000
vt 0.375000 0.000000
vt 0.625000 0.000000
vt 0.625000 0.250000
vt 0.375000 0.250000
vt 0.625000 0.500000
vt 0.375000 0.500000
vt 0.625000 0.750000
vt 0.375000 0.750000
vt 0.375000 0.000000
vt 0.625000 0.000000
vt 0.125000 0.500000
vt 0.125000 0.750000
vt 0.875000 0.500000
vt 0.875000 0.750000
vt 0.375000 0.750000
vt 0.625000 0.750000
vt 0.625000 1.000000
vt 0.375000 1.000000
vt 0.125000 0.750000
vt 0.875000 0.750000
vn 1.0000 0.0000 0.0000
vn 0.0000 0.0000 -1.0000
vn -1.0000 0.0000 0.0000
vn 0.5544 0.0000 -0.8322
vn 0.0000 1.0000 0.0000
vn 0.0000 -1.0000 0.0000
vn 0.4536 0.0000 0.8912
vn -0.5846 0.0000 0.8113
vn -0.5544 0.0000 -0.8322
vn -0.4536 0.0000 0.8912
vn 0.5846 0.0000 0.8113
usemtl None
s off
f 1/1/1 2/2/1 4/3/1 3/4/1
f 3/4/2 4/3/2 8/5/2 7/6/2
f 7/6/3 8/5/3 6/7/3 5/8/3
f 2/2/4 1/1/4 9/9/4 10/10/4
f 3/11/5 7/6/5 5/8/5 1/12/5
f 8/5/6 4/13/6 2/14/6 6/7/6
f 11/15/7 12/16/7 10/17/7 9/18/7
f 1/12/5 5/8/5 11/15/5 9/19/5
f 6/7/6 2/14/6 10/20/6 12/16/6
f 5/8/8 6/7/8 12/16/8 11/15/8
f 13/21/3 14/22/3 16/23/3 15/24/3
f 15/24/2 16/23/2 20/25/2 19/26/2
f 19/26/1 20/25/1 18/27/1 17/28/1
f 14/22/9 13/21/9 21/29/9 22/30/9
f 15/31/6 19/26/6 17/28/6 13/32/6
f 20/25/5 16/33/5 14/34/5 18/27/5
f 23/35/10 24/36/10 22/37/10 21/38/10
f 13/32/6 17/28/6 23/35/6 21/39/6
f 18/27/5 14/34/5 22/40/5 24/36/5
f 17/28/11 18/27/11 24/36/11 23/35/11
