# Blender v3.2.2 OBJ File: ''
# www.blender.org
mtllib propeller.mtl
o Cube
v -0.334196 2.976027 -1.903530
v -0.334196 0.012510 -1.000000
v -0.334196 2.976027 1.903530
v -0.334196 0.012510 1.000000
v 0.334196 2.976027 -1.903530
v 0.334196 0.012510 -1.000000
v 0.334196 2.976027 1.903530
v 0.334196 0.012510 1.000000
v -0.334196 6.111540 -1.001175
v -0.334196 6.111540 1.001175
v 0.334196 6.111540 -1.001175
v 0.334196 6.111540 1.001175
v -0.274618 -3.092165 -1.903530
v -0.274618 -6.055683 -1.000000
v -0.274618 -3.092165 1.903530
v -0.274618 -6.055683 1.000000
v 0.393774 -3.092165 -1.903530
v 0.393774 -6.055683 -1.000000
v 0.393774 -3.092165 1.903530
v 0.393774 -6.055683 1.000000
v -0.274618 0.043348 -1.001175
v -0.274618 0.043348 1.001175
v 0.393774 0.043348 -1.001175
v 0.393774 0.043348 1.001175
vt 0.625000 0.500000
vt 0.625000 0.250000
vt 0.625000 0.250000
vt 0.625000 0.500000
vt 0.375000 0.750000
vt 0.625000 0.750000
vt 0.625000 1.000000
vt 0.375000 1.000000
vt 0.375000 0.000000
vt 0.625000 0.000000
vt 0.375000 0.250000
vt 0.125000 0.500000
vt 0.375000 0.500000
vt 0.125000 0.750000
vt 0.875000 0.500000
vt 0.875000 0.750000
vt 0.625000 0.750000
vt 0.625000 1.000000
vt 0.625000 0.000000
vt 0.625000 0.500000
vt 0.625000 0.250000
vt 0.625000 0.250000
vt 0.625000 0.500000
vt 0.375000 0.750000
vt 0.625000 0.750000
vt 0.625000 1.000000
vt 0.375000 1.000000
vt 0.375000 0.000000
vt 0.625000 0.000000
vt 0.375000 0.250000
vt 0.125000 0.500000
vt 0.375000 0.500000
vt 0.125000 0.750000
vt 0.875000 0.500000
vt 0.875000 0.750000
vt 0.625000 0.750000
vt 0.625000 1.000000
vt 0.625000 0.000000
vn 0.0000 -0.2766 0.9610
vn 0.0000 0.2916 -0.9565
vn -1.0000 -0.0000 0.0000
vn 0.0000 1.0000 0.0000
vn 1.0000 -0.0000 0.0000
vn 0.0000 0.2916 0.9565
vn 0.0000 -1.0000 0.0000
vn 0.0000 -0.2766 -0.9610
usemtl Material
s off
f 1/1/1 5/2/1 11/3/1 9/4/1
f 4/5/2 3/6/2 7/7/2 8/8/2
f 8/9/3 7/10/3 5/2/3 6/11/3
f 6/12/4 2/13/4 4/5/4 8/14/4
f 2/13/5 1/1/5 3/6/5 4/5/5
f 6/11/6 5/2/6 1/1/6 2/13/6
f 9/4/7 11/15/7 12/16/7 10/17/7
f 7/7/8 3/6/8 10/17/8 12/18/8
f 5/2/3 7/10/3 12/19/3 11/3/3
f 3/6/5 1/1/5 9/4/5 10/17/5
f 13/20/1 17/21/1 23/22/1 21/23/1
f 16/24/2 15/25/2 19/26/2 20/27/2
f 20/28/3 19/29/3 17/21/3 18/30/3
f 18/31/4 14/32/4 16/24/4 20/33/4
f 14/32/5 13/20/5 15/25/5 16/24/5
f 18/30/6 17/21/6 13/20/6 14/32/6
f 21/23/7 23/34/7 24/35/7 22/36/7
f 19/26/8 15/25/8 22/36/8 24/37/8
f 17/21/3 19/29/3 24/38/3 23/22/3
f 15/25/5 13/20/5 21/23/5 22/36/5
